<svg xmlns="http://www.w3.org/2000/svg" width="16" height="16" viewBox="0 0 16 16">
    <g fill="none" fill-rule="evenodd">
        <path d="M-2-2h20v20H-2z"/>
        <path fill="#7B9BE0" fill-rule="nonzero" d="M10.917 9.667h-.659l-.233-.225a5.393 5.393 0 0 0 1.308-3.525 5.417 5.417 0 1 0-5.416 5.416 5.393 5.393 0 0 0 3.525-1.308l.225.233v.659l4.166 4.158 1.242-1.242-4.158-4.166zm-5 0a3.745 3.745 0 0 1-3.75-3.75 3.745 3.745 0 0 1 3.75-3.75 3.745 3.745 0 0 1 3.75 3.75 3.745 3.745 0 0 1-3.75 3.75z"/>
    </g>
</svg>
